<svg xmlns="http://www.w3.org/2000/svg" width="16" height="16" viewBox="0 0 16 16">
  <defs>
    <style>
      .cls-1 {
        fill: #f4f8fb;
        fill-rule: evenodd;
      }
    </style>
  </defs>
  <path id="Canvas" class="cls-1" d="M12.063,11.25H11.25v0.813A2.188,2.188,0,0,1,9.063,14.25H3.938A2.188,2.188,0,0,1,1.75,12.063V6.938A2.188,2.188,0,0,1,3.938,4.75H4.75V3.938A2.188,2.188,0,0,1,6.938,1.75h5.125A2.188,2.188,0,0,1,14.25,3.938V9.063A2.188,2.188,0,0,1,12.063,11.25ZM4,6.25A0.75,0.75,0,0,0,3.25,7v5a0.75,0.75,0,0,0,.75.75H9A0.75,0.75,0,0,0,9.75,12V11.25H6.938A2.188,2.188,0,0,1,4.75,9.063V6.25H4Zm5.75,3.5V7A0.75,0.75,0,0,0,9,6.25H6.25V9A0.75,0.75,0,0,0,7,9.75H9.75Zm3-5.75A0.75,0.75,0,0,0,12,3.25H7A0.75,0.75,0,0,0,6.25,4V4.75H9.063A2.188,2.188,0,0,1,11.25,6.938V9.75H12A0.75,0.75,0,0,0,12.75,9V4Z"/>
</svg>
